<?xml version="1.0"?>
<svg xmlns="http://www.w3.org/2000/svg" viewBox="0 0 64 64" width="512px" height="512px" class=""><g><g id="Login"><path d="M59,2H5A3,3,0,0,0,2,5V59a3,3,0,0,0,3,3H59a3,3,0,0,0,3-3V5A3,3,0,0,0,59,2ZM5,4H59a1,1,0,0,1,1,1v5H4V5A1,1,0,0,1,5,4ZM59,60H5a1,1,0,0,1-1-1V12H60V59A1,1,0,0,1,59,60Z" data-original="#000000" class="active-path" data-old_color="#000000" fill="#FFD71A"/><path d="M7,8H8A1,1,0,0,0,8,6H7A1,1,0,0,0,7,8Z" data-original="#000000" class="active-path" data-old_color="#000000" fill="#FFD71A"/><path d="M12,8h1a1,1,0,0,0,0-2H12a1,1,0,0,0,0,2Z" data-original="#000000" class="active-path" data-old_color="#000000" fill="#FFD71A"/><path d="M17,8h1a1,1,0,0,0,0-2H17a1,1,0,0,0,0,2Z" data-original="#000000" class="active-path" data-old_color="#000000" fill="#FFD71A"/><path d="M57,30H29a1,1,0,0,0-1,1v8a1,1,0,0,0,1,1H57a1,1,0,0,0,1-1V31A1,1,0,0,0,57,30Zm-1,8H30V32H56Z" data-original="#000000" class="active-path" data-old_color="#000000" fill="#FFD71A"/><path d="M57,42H29a1,1,0,0,0-1,1v8a1,1,0,0,0,1,1H57a1,1,0,0,0,1-1V43A1,1,0,0,0,57,42Zm-1,8H30V44H56Z" data-original="#000000" class="active-path" data-old_color="#000000" fill="#FFD71A"/><path d="M21,38H11a5.006,5.006,0,0,0-5,5v8a1,1,0,0,0,1,1H25a1,1,0,0,0,1-1V43A5.006,5.006,0,0,0,21,38Zm3,12H8V43a3,3,0,0,1,3-3H21a3,3,0,0,1,3,3Z" data-original="#000000" class="active-path" data-old_color="#000000" fill="#FFD71A"/><path d="M16,37a5,5,0,1,0-5-5A5.006,5.006,0,0,0,16,37Zm0-8a3,3,0,1,1-3,3A3,3,0,0,1,16,29Z" data-original="#000000" class="active-path" data-old_color="#000000" fill="#FFD71A"/><path d="M29,25h4a1,1,0,0,0,0-2H30V18a1,1,0,0,0-2,0v6A1,1,0,0,0,29,25Z" data-original="#000000" class="active-path" data-old_color="#000000" fill="#FFD71A"/><path d="M37,25a3,3,0,1,0-3-3A3,3,0,0,0,37,25Zm0-4a1,1,0,1,1-1,1A1,1,0,0,1,37,21Z" data-original="#000000" class="active-path" data-old_color="#000000" fill="#FFD71A"/><path d="M44,25a2.966,2.966,0,0,0,1-.184V25a1,1,0,0,1-1,1H43a1,1,0,0,0,0,2h1a3,3,0,0,0,3-3V20a1,1,0,0,0-1.713-.7A3,3,0,1,0,44,25Zm0-4a1,1,0,1,1-1,1A1,1,0,0,1,44,21Z" data-original="#000000" class="active-path" data-old_color="#000000" fill="#FFD71A"/><path d="M49,25a1,1,0,0,0,1-1V20a1,1,0,0,0-2,0v4A1,1,0,0,0,49,25Z" data-original="#000000" class="active-path" data-old_color="#000000" fill="#FFD71A"/><path d="M52,25a1,1,0,0,0,1-1V21.5a.5.5,0,0,1,1,0V24a1,1,0,0,0,2,0V21.5a2.495,2.495,0,0,0-3.447-2.311A.972.972,0,0,0,52,19a1,1,0,0,0-1,1v4A1,1,0,0,0,52,25Z" data-original="#000000" class="active-path" data-old_color="#000000" fill="#FFD71A"/><circle cx="49" cy="17" r="1" data-original="#000000" class="active-path" data-old_color="#000000" fill="#FFD71A"/></g></g> </svg>
