<svg xmlns="http://www.w3.org/2000/svg" viewBox="0 0 576.14 576.14"><defs><style>.cls-1,.cls-11{fill:#fff;}.cls-1{stroke:#000;stroke-miterlimit:10;stroke-width:4px;}.cls-2{fill:#d03100;}.cls-3{fill:#e8c5a3;}.cls-4{fill:#9e7c63;}.cls-5{fill:#ceae99;}.cls-6{fill:#f4dfce;}.cls-7{fill:#74aee2;}.cls-8{fill:#5dae00;}.cls-9{fill:#10283a;}.cls-10{fill:#9b5323;}.cls-12{fill:#f4870f;}.cls-13{fill:#fffb00;}</style></defs><title>logosamajame_rd_contour</title><g id="Calque_8" data-name="Calque 8"><circle class="cls-1" cx="288.07" cy="288.07" r="286.07"/></g><g id="Calque_4" data-name="Calque 4"><polygon class="cls-2" points="420.36 450.96 154.36 450.96 127.19 422 127.19 158.5 154.86 130.29 419.36 130.29 447.86 159 447.86 422.5 420.36 450.96"/></g><g id="Calque_6" data-name="Calque 6"><ellipse class="cls-3" cx="211.86" cy="130.75" rx="17.5" ry="19.25"/><ellipse class="cls-3" cx="361.86" cy="130.75" rx="17.5" ry="19.25"/><ellipse class="cls-4" cx="212.86" cy="450.96" rx="17.5" ry="19.25"/><ellipse class="cls-4" cx="361.5" cy="450.96" rx="17.5" ry="19.25"/><ellipse class="cls-5" cx="446.86" cy="363.75" rx="19.25" ry="17.5"/><ellipse class="cls-5" cx="446.86" cy="214.94" rx="19.25" ry="17.5"/><ellipse class="cls-6" cx="127.86" cy="214.94" rx="19.25" ry="17.5"/><ellipse class="cls-6" cx="127.19" cy="363.5" rx="19.25" ry="17.5"/></g><g id="Calque_1" data-name="Calque 1"><ellipse class="cls-3" cx="286.86" cy="124.5" rx="77" ry="99.5"/><ellipse class="cls-5" cx="443.86" cy="288.94" rx="99.5" ry="77"/><ellipse class="cls-6" cx="127.86" cy="288.94" rx="99.5" ry="77"/><ellipse class="cls-4" cx="287.5" cy="449.5" rx="77" ry="99.5"/></g><g id="Calque_2" data-name="Calque 2"><circle class="cls-7" cx="130.36" cy="321.17" r="15.79"/><circle class="cls-7" cx="130.36" cy="255.83" r="15.79"/><circle class="cls-8" cx="320.03" cy="130.5" r="15.79"/><circle class="cls-8" cx="256.03" cy="130.5" r="15.79"/><circle class="cls-9" cx="256.03" cy="446.5" r="15.79"/><circle class="cls-9" cx="320.03" cy="446.5" r="15.79"/><circle class="cls-10" cx="438.69" cy="256.83" r="15.79"/><circle class="cls-10" cx="438.69" cy="320.5" r="15.79"/><path class="cls-11" d="M281.87,545.25c.23-19.36,11.43-34.92,25-34.75s24.4,16,24.16,35.35C331,551.78,281.79,551.18,281.87,545.25Z" transform="translate(-19.14 -135)"/></g><g id="Calque_3" data-name="Calque 3"><path class="cls-11" d="M330.67,300.45c0,19.36-11,35.05-24.58,35.05s-24.59-15.69-24.59-35.05C281.5,294.52,330.67,294.52,330.67,300.45Z" transform="translate(-19.14 -135)"/><path class="cls-11" d="M185.55,398.7c19.36-.19,35.16,10.67,35.29,24.25S205.38,447.69,186,447.87C180.09,447.92,179.62,398.75,185.55,398.7Z" transform="translate(-19.14 -135)"/><path class="cls-11" d="M422.85,448c-19.36,0-35-11.06-35-24.64s15.73-24.57,35.09-24.54C428.86,398.82,428.78,448,422.85,448Z" transform="translate(-19.14 -135)"/></g><g id="Calque_5" data-name="Calque 5"><path class="cls-12" d="M263.5,190.5s0,12,9,20-3-3,0-12S289,213.27,289,213.27s1.5-11.27,0-16.77,26.35,16,41.67,16.77-6.42-4.27-7.3-13.77,16.55,14,31.59,23.5-1.54-1,0-5.5,19,18,18,29,4.28,11.5,10.64-3S375,196,370.5,190.5s-14.67-23-31.33-28.5S301,152,271,162s-40,46.5-40,46.5-5,15-2,31,5.5,15.09,5.5,15.09,1-14.59,3-19.59,6.5,0,6.5,0-2-13.5-.5-19S253.5,194,263.5,190.5Z" transform="translate(-19.14 -135)"/><path class="cls-13" d="M85,453.5s11-3,17.5-8S98,444.25,91,440.37,108.5,431,108.5,431s-14.5-7-19-3,16.5-7,19-15.5S98,420,92,416s17-9,25.5-20.5-5,5.39-10.5,3.19,15.86-25.53,24-22.65-3-.51-13.5-1c-8.42-.39,18-26.07,32-19.47,11.84,5.58-20-16.07-29-13.57s-22,3-35.5,12-27,22-32.5,34.5-19,39-5,61.5S72,482.5,79,487.5s11.5,13.44,27,13.44c19,2.56,27.71-6.94,27.71-6.94S120,496,114,489.5s4-8.5,4-8.5-8,3.5-13,0-1-2.08,4-9S93.5,476,85,453.5Z" transform="translate(-19.14 -135)"/><path class="cls-10" d="M503.5,386.5s-16.5,25-18.25,45,0,3.5,9.13,0S485,475,477.5,478.77s13,6.23,13,6.23-12.5,8-19.5,6,11.5,10.26,18.5,10.38,24.5-6.88,33-11.88,19.5-13.42,24-18.21,17.5-20,19-30.92,1.5-39.87-10-53.87-12.36-24-37.68-34-38.57-5-44.19,0,7.37,2,18.87,11.5A29.92,29.92,0,0,1,503.5,386.5Z" transform="translate(-19.14 -135)"/><ellipse cx="218.86" cy="489.75" rx="14.5" ry="12.75"/><circle cx="229.36" cy="509" r="15.5"/><ellipse cx="214.93" cy="475.83" rx="8.21" ry="14.83"/><circle cx="241.14" cy="526.98" r="10.78"/><circle cx="250.11" cy="514.75" r="12.25"/><circle cx="298.64" cy="537.41" r="13.41"/><ellipse cx="306.11" cy="521" rx="12.25" ry="10"/><ellipse cx="380.67" cy="606.54" rx="6.17" ry="13.46" transform="translate(-43.47 -119.03) rotate(-2.33)"/><circle cx="355.36" cy="487.75" r="11"/><circle cx="355.36" cy="498.75" r="7.19"/><circle cx="256.52" cy="534.66" r="11.16"/><circle cx="325.83" cy="514.75" r="11.5"/><circle cx="268.36" cy="511.5" r="9"/><circle cx="318.36" cy="531.99" r="13.19"/><ellipse cx="279.17" cy="531.99" rx="24.31" ry="21.01"/><circle cx="335.82" cy="524.5" r="11.37"/><circle cx="344" cy="498.19" r="7.19"/><circle cx="347.11" cy="509" r="10.81"/><circle cx="336.3" cy="508.78" r="8.17"/></g><g id="Calque_7" data-name="Calque 7"><path class="cls-13" d="M79.41,367.44S40.5,340,66,327.5,96.5,315,89,307s17,9.5,12,19-15.41,17.08-13,20.94S93.53,359,93.53,359Z" transform="translate(-19.14 -135)"/><path class="cls-13" d="M79.57,478.77s-38.91,28-13.41,40.74,30.5,12.75,23,20.91,17-9.69,12-19.38-15.41-17.42-13-21.36,5.53-12.3,5.53-12.3Z" transform="translate(-19.14 -135)"/><circle class="cls-10" cx="521.11" cy="232.05" r="21.57"/><circle class="cls-10" cx="521.11" cy="342.77" r="21.57"/></g></svg>